<svg width="362" height="114" viewBox="0 0 362 114" fill="none" xmlns="http://www.w3.org/2000/svg">
<path d="M102.279 0V59.4702C102.279 65.4481 107.121 70.2959 113.09 70.2959H172.973V53.8937C172.973 47.9158 168.132 43.068 162.162 43.068H133.522C131.283 43.068 129.47 41.2524 129.47 39.0107V10.8257C129.47 4.84778 124.629 0 118.659 0H102.279Z" fill="#C9DE0A"/>
<path d="M144.901 30.6862H166.362C169.458 30.6738 171.018 26.9314 168.835 24.733L147.349 3.0075C145.153 0.790495 141.379 2.34672 141.385 5.47153L141.416 27.2093C141.416 29.1361 142.983 30.6985 144.907 30.6985L144.901 30.6862Z" fill="white"/>
<path d="M27.0461 50.2996V69.4004H4.65315C2.26646 69.4004 0.336136 67.4675 0.336136 65.0776V5.13805C0.336136 2.74812 2.27262 0.815186 4.65315 0.815186H27.0399V24.2389H67.1512V0.815186H89.5935C91.9802 0.815186 93.9105 2.74812 93.9105 5.13805V65.0838C93.9105 67.4737 91.9802 69.4066 89.5935 69.4066H67.1512V50.3058C67.1512 47.9158 65.2208 45.9829 62.8341 45.9829H31.357C28.9703 45.9829 27.0399 47.9158 27.0399 50.3058L27.0461 50.2996Z" fill="white"/>
<path d="M203.131 64.6391V22.133H175.712C173.319 22.133 171.376 20.1877 171.376 17.7916V0.389038H257.272C259.659 0.389038 261.589 2.32197 261.589 4.7119V22.133H229.835V64.6453C229.835 67.0414 227.892 68.9867 225.499 68.9867H207.46C205.067 68.9867 203.125 67.0414 203.125 64.6453L203.131 64.6391Z" fill="white"/>
<path d="M295.133 49.7808V68.8817H272.746C270.359 68.8817 268.429 66.9487 268.429 64.5588V4.61308C268.429 2.22316 270.359 0.290222 272.746 0.290222H295.133V23.7139H335.244V0.290222H357.686C360.073 0.290222 362.003 2.22316 362.003 4.61308V64.5588C362.003 66.9487 360.073 68.8817 357.686 68.8817H335.244V49.7808C335.244 47.3909 333.313 45.4579 330.927 45.4579H299.45C297.063 45.4579 295.133 47.3909 295.133 49.7808Z" fill="white"/>
<path d="M-0.00305176 84.0981H35.5938V93.3614H11.3754V96.9309H32.7446V105.478H11.3754V113.327H-0.00305176V84.0981Z" fill="white"/>
<path d="M46.5035 84.0981H60.0343L75.6927 113.327H62.8773L60.577 108.325H45.9608L43.6605 113.327H30.8451L46.5035 84.0981ZM49.2602 101.192H57.2775L53.2812 92.5586L49.2602 101.192Z" fill="white"/>
<path d="M113.639 101.167C112.924 111.042 104.277 114 93.7686 114C82.8219 113.975 73.787 110.801 73.8302 99.7346V97.604C73.787 86.556 82.8219 83.3818 93.7686 83.3386C104.284 83.3633 112.924 86.3152 113.639 96.1713H101.977C100.91 93.2997 97.6786 92.6265 93.7686 92.6265C89.1186 92.6945 85.1654 93.5158 85.2333 98.3265V99.0429C85.1654 103.804 89.1186 104.675 93.7686 104.743C97.6786 104.743 100.935 104.045 101.977 101.173H113.639V101.167Z" fill="white"/>
<path d="M128.04 113.327V93.3614H114.509V84.0981H152.949V93.3614H139.418V113.327H128.04Z" fill="white"/>
<path d="M193.683 97.604V99.7346C193.726 110.783 184.734 113.981 173.769 114C162.779 113.975 153.787 110.783 153.831 99.7346V97.604C153.787 86.5313 162.779 83.3571 173.769 83.3386C184.759 83.3386 193.683 86.556 193.683 97.604ZM182.298 98.2957C182.366 93.5343 178.413 92.6636 173.763 92.5957C169.094 92.6636 165.141 93.5282 165.203 98.2957V99.012C165.135 103.798 169.088 104.669 173.763 104.731C178.413 104.663 182.366 103.798 182.298 99.012V98.2957Z" fill="white"/>
<path d="M225.179 84.0734C231.198 84.0055 236.298 89.0756 236.212 95.1214C236.212 97.3199 235.626 99.3208 234.454 101.099C233.301 102.859 231.759 104.212 229.847 105.101L236.212 113.302H224.093L218.598 106.169H208.435V113.302H197.056V84.0734H225.185H225.179ZM208.435 92.6203V97.5978H222.311C223.008 97.5978 223.594 97.357 224.068 96.8814C224.568 96.3812 224.808 95.7946 224.808 95.1214C224.808 93.7319 223.698 92.6203 222.311 92.6203H208.435Z" fill="white"/>
</svg>
